<svg width="1811" height="34" viewBox="0 0 1811 34" fill="none" xmlns="http://www.w3.org/2000/svg">
<path d="M257.68 34H253.792V0.400024H260.608L268.192 30.448V0.400024H272.08V34H265.216L257.68 3.95202V34Z" fill="#CE2323"/>
<path d="M288.594 34C285.778 34 283.714 33.408 282.402 32.224C281.09 31.008 280.434 29.04 280.434 26.32V17.68C280.434 14.928 281.026 12.96 282.21 11.776C283.394 10.592 285.362 10 288.114 10H290.37C292.642 10 294.354 10.64 295.506 11.92C296.69 13.168 297.282 15.008 297.282 17.44V23.68H284.514V27.28C284.514 28.272 284.818 29.04 285.426 29.584C286.034 30.128 286.93 30.4 288.114 30.4H295.746V34H288.594ZM293.298 16.48C293.298 15.648 293.026 14.96 292.482 14.416C291.938 13.872 291.25 13.6 290.418 13.6H287.634C286.482 13.6 285.666 13.872 285.186 14.416C284.738 14.928 284.514 15.696 284.514 16.72V20.08H293.298V16.48Z" fill="#CE2323"/>
<path d="M314.9 21.952L312.308 34H307.844L303.524 10H307.604L310.34 29.056L313.508 14.32H316.628L319.508 29.056L322.244 10H326.084L321.812 34H317.204L314.9 21.952Z" fill="#CE2323"/>
<path d="M348.022 28C348.022 30.016 347.398 31.52 346.15 32.512C344.934 33.504 343.158 34 340.822 34H333.67V30.4H341.302C342.166 30.4 342.822 30.224 343.27 29.872C343.718 29.488 343.942 28.944 343.942 28.24V25.696C343.942 24.256 343.254 23.536 341.878 23.536H340.102C337.862 23.536 336.182 23.056 335.062 22.096C333.974 21.104 333.43 19.552 333.43 17.44V16.048C333.43 13.904 334.038 12.368 335.254 11.44C336.47 10.48 338.262 10 340.63 10H347.062V13.6H340.15C339.35 13.6 338.71 13.792 338.23 14.176C337.75 14.528 337.51 15.056 337.51 15.76V17.488C337.51 18.224 337.718 18.768 338.134 19.12C338.582 19.472 339.142 19.648 339.814 19.648H341.446C343.59 19.648 345.222 20.176 346.342 21.232C347.462 22.256 348.022 23.792 348.022 25.84V28Z" fill="#CE2323"/>
<path fill-rule="evenodd" clip-rule="evenodd" d="M237 21H0V17H237V21Z" fill="#CE2323"/>
<path fill-rule="evenodd" clip-rule="evenodd" d="M1811 21.0001L369 21L369 17L1811 17.0001L1811 21.0001Z" fill="#CE2323"/>
</svg>
